<?xml version="1.0" encoding="UTF-8"?>
<svg width="65px" height="65px" viewBox="0 0 65 65" version="1.1" xmlns="http://www.w3.org/2000/svg" xmlns:xlink="http://www.w3.org/1999/xlink">
    <!-- Generator: Sketch 40.2 (33826) - http://www.bohemiancoding.com/sketch -->
    <title>kunle-fill</title>
    <desc>Created with Sketch.</desc>
    <defs></defs>
    <g id="Page-1" stroke="none" stroke-width="1" fill="none" fill-rule="evenodd">
        <g id="Welcome-Page-Copy-2" transform="translate(-60.000000, -50.000000)">
            <g id="kunle-fill" transform="translate(60.000000, 50.000000)">
                <g>
                    <circle id="Oval" fill="#FFFFFF" cx="32.5" cy="32.5" r="32.5"></circle>
                    <path d="M33.2539271,56.3915323 C33.6860449,56.3915323 33.9394811,55.8435484 34.0452314,55.5559476 C34.8502104,53.3767137 36.5677419,47.7889113 37.2797335,46.775504 C38.4138149,45.1642137 43.8253156,49.1479839 46.7462132,47.6065524 C48.5667602,46.6439516 50.7191445,39.6181452 50.7191445,39.6181452 C50.7191445,39.6181452 51.9352735,37.1422379 51.5469144,35.6416331 C51.3809958,35.0029234 50.0746143,34.6318548 50.4392707,34.4513105 C51.2150771,34.0684476 52.4758766,33.3544355 52.9490182,32.4063508 C53.3118513,31.6669355 52.8323282,30.6462702 52.8323282,30.6462702 C52.8323282,30.6462702 49.7856241,24.4279234 49.257784,24.1140121 C48.7308555,23.7991935 47.5402525,15.4633065 43.6238429,11.9322581 C43.6238429,11.9322581 36.6561711,7.30433468 24.3307854,10.6584677 C18.8819074,12.1391129 15.6118513,18.9553427 14.7840813,23.9842742 C14.7840813,23.9842742 14.6035764,25.6118952 14.6035764,27.0127016 C14.6035764,29.4033266 19.20554,36.8736895 20.8209677,38.5149194 C21.5056101,39.2089718 18.1890603,48.0719758 17.0732118,50.9833669 C16.8598878,51.5431452 17.2281907,52.0920363 17.4515428,52.1764113 L33.2539271,56.3915323 Z" id="Shape" fill="#1A3A64"></path>
                    <rect id="Rectangle-path" fill="#6BD3D1" x="11.6607994" y="24.3907258" width="21.4992286" height="2.26814516"></rect>
                    <ellipse id="Oval" fill="#6BD3D1" cx="33.1600281" cy="25.5247984" rx="2.65925666" ry="2.64647177"></ellipse>
                    <path d="M21.6997896,55.7020161 L25.1904628,45.3166331 C25.1904628,45.3166331 25.9106592,43.6926411 27.4340112,44.5282258 L33.6851332,46.3853831" id="Shape" stroke="#6BD3D1" stroke-width="2"></path>
                </g>
            </g>
        </g>
    </g>
</svg>